HIERARCHY
ROOT root
{
	OFFSET	0	13.1	24.9
	CHANNELS 6  Xposition Yposition Zposition Xrotation Yrotation Zrotation
	JOINT spine_1
	{
		OFFSET	0	9.99999	0
		CHANNELS 3  Xrotation Yrotation Zrotation
		JOINT spine_2
		{
			OFFSET	0	112	-10
			CHANNELS 3  Xrotation Yrotation Zrotation
			JOINT spine_3
			{
				OFFSET	0	206.5	19.3
				CHANNELS 3  Xrotation Yrotation Zrotation
				JOINT spine_4
				{
					OFFSET	0	110.4	14.6
					CHANNELS 3  Xrotation Yrotation Zrotation
					JOINT neck_1
					{
						OFFSET	0	71.8	-50.3
						CHANNELS 3  Xrotation Yrotation Zrotation
						JOINT neck_2
						{
							OFFSET	0	86.2	-25.8
							CHANNELS 3  Xrotation Yrotation Zrotation
							JOINT head_ee
							{
								OFFSET	0	179.8	-8.7
								CHANNELS 3  Xrotation Yrotation Zrotation
								End Site
								{
									OFFSET	1	0	0
								}
							}
						}
					}
					JOINT left_clavicle
					{
						OFFSET	-43.2	22.4	-70.8
						CHANNELS 3  Xrotation Yrotation Zrotation
						JOINT left_shoulder
						{
							OFFSET	-93.9	-5.79999	48.7
							CHANNELS 3  Xrotation Yrotation Zrotation
							JOINT left_elbow
							{
								OFFSET	-291.4	-30.8	15.2
								CHANNELS 3  Xrotation Yrotation Zrotation
								JOINT left_lowarm_twist
								{
									OFFSET	-110.7	-3.89999	13.6
									CHANNELS 3  Xrotation Yrotation Zrotation
									JOINT left_hand
									{
										OFFSET	-110.7	-3.89999	13.6
										CHANNELS 3  Xrotation Yrotation Zrotation
										JOINT left_ee
										{
											OFFSET	-80.8	-5.10001	12.1
											CHANNELS 3  Xrotation Yrotation Zrotation
											End Site
											{
												OFFSET	1	0	0
											}
										}
									}
								}
							}
						}
					}
					JOINT right_clavicle
					{
						OFFSET	43.2	22.4	-70.8
						CHANNELS 3  Xrotation Yrotation Zrotation
						JOINT right_shoulder
						{
							OFFSET	93.9	-5.79999	48.7
							CHANNELS 3  Xrotation Yrotation Zrotation
							JOINT right_elbow
							{
								OFFSET	291.4	-30.8	15.2
								CHANNELS 3  Xrotation Yrotation Zrotation
								JOINT right_lowarm_twist
								{
									OFFSET	110.7	-3.89999	13.6
									CHANNELS 3  Xrotation Yrotation Zrotation
									JOINT right_hand
									{
										OFFSET	110.7	-3.89999	13.6
										CHANNELS 3  Xrotation Yrotation Zrotation
										JOINT right_ee
										{
											OFFSET	80.8	-5.10001	12.1
											CHANNELS 3  Xrotation Yrotation Zrotation
											End Site
											{
												OFFSET	1	0	0
											}
										}
									}
								}
							}
						}
					}
				}
			}
		}
	}
	JOINT left_hip
	{
		OFFSET	-82.8	-127.5	0.300001
		CHANNELS 3  Xrotation Yrotation Zrotation
		JOINT left_knee
		{
			OFFSET	-28.2	-396.7	2.2
			CHANNELS 3  Xrotation Yrotation Zrotation
			JOINT left_ankle
			{
				OFFSET	-11.7	-411.3	35.4
				CHANNELS 3  Xrotation Yrotation Zrotation
				JOINT left_toes
				{
					OFFSET	0	-60	-88.6
					CHANNELS 3  Xrotation Yrotation Zrotation
					JOINT left_foot_ee
					{
						OFFSET	-22.5	-16.5	-42.2
						CHANNELS 3  Xrotation Yrotation Zrotation
						End Site
						{
							OFFSET	1	0	0
						}
					}
				}
			}
		}
	}
	JOINT right_hip
	{
		OFFSET	82.8	-127.5	0.300001
		CHANNELS 3  Xrotation Yrotation Zrotation
		JOINT right_knee
		{
			OFFSET	28.2	-396.7	2.2
			CHANNELS 3  Xrotation Yrotation Zrotation
			JOINT right_ankle
			{
				OFFSET	11.7	-411.3	35.4
				CHANNELS 3  Xrotation Yrotation Zrotation
				JOINT right_toes
				{
					OFFSET	0	-60	-88.6
					CHANNELS 3  Xrotation Yrotation Zrotation
					JOINT right_foot_ee
					{
						OFFSET	22.5	-16.5	-42.2
						CHANNELS 3  Xrotation Yrotation Zrotation
						End Site
						{
							OFFSET	1	0	0
						}
					}
				}
			}
		}
	}
}
MOTION
Frames: 7
Frame Time: 0.02
3116.24 695.898 -1459.97 0.666449 70.632 -1.61759 -2.21631 0.560846 1.26167 -2.21555 0.479433 1.29479 -2.20343 0.143975 1.37316 -2.20588 0.359015 1.3332 -16.8753 14.8038 2.52599 -17.712 27.0194 8.02675 -0.0 0.0 -0.0 4.78985 24.2063 9.29479 -36.3883 -13.4831 66.8678 0.510311 -14.187 0.0635041 -13.0618 -0.638775 1.53948 0.275241 13.109 7.13186 -0.0 0.0 -0.0 13.9413 26.6194 -27.7879 17.25 33.0149 -55.8153 1.91631 43.5051 -0.764689 55.4283 1.38424 6.67056 3.55031 -4.93979 -26.3858 0.0 0.0 0.0 22.8581 -4.80815 -7.42912 5.12008 -0.244447 -0.747238 -23.6503 12.5043 3.56547 13.2617 -0.0 -0.0 -0.0 0.0 -0.0 -9.92573 -26.2405 13.1469 -16.7035 -0.32032 -2.53424 29.4472 32.5803 4.90217 4.79311 -0.0 -0.0 0.0 0.0 0.0 
3096.69 696.466 -1457.73 -0.357489 71.3423 -0.825544 -2.07717 0.505477 1.21746 -2.07645 0.426989 1.24715 -2.06601 0.108094 1.31377 -2.06828 0.314206 1.28022 -16.7328 14.5984 2.65937 -17.5213 26.5379 8.02168 -0.0 0.0 -0.0 4.88898 23.9441 9.4407 -36.3171 -13.9947 65.9026 0.52362 -14.5414 0.0668058 -13.3991 -0.659856 1.57715 0.424936 12.5912 7.88292 -0.0 0.0 -0.0 13.9824 26.6985 -27.8738 15.7455 32.3761 -55.4668 1.92265 43.5995 -0.769056 55.5422 1.39352 6.68183 3.58809 -5.23255 -26.7726 0.0 0.0 0.0 22.5672 -5.76411 -6.63146 4.7033 -0.222055 -0.687241 -23.6559 10.12 3.55941 13.4863 -0.0 -0.0 -0.0 0.0 -0.0 -10.3331 -24.709 13.4796 -18.336 -0.31173 -2.78457 28.8623 32.1886 4.79925 5.08018 -0.0 -0.0 0.0 0.0 0.0 
3074.95 700.362 -1453.97 -0.232341 71.6945 -0.847728 -2.08369 0.617976 1.18004 -2.08308 0.541641 1.21696 -2.07043 0.226577 1.31263 -2.07258 0.431023 1.26039 -17.4675 14.5013 4.10057 -18.2213 25.6323 9.4841 -0.0 0.0 -0.0 5.10194 23.8153 9.74146 -35.87 -14.4442 64.7496 0.549613 -15.2305 0.0734834 -13.9848 -0.696987 1.64226 0.583141 12.2165 8.75012 -0.0 0.0 -0.0 13.909 26.7441 -27.6964 13.4855 31.3173 -54.941 1.94523 43.9335 -0.784674 55.7567 1.41105 6.70299 3.59126 -5.45698 -26.8776 0.0 0.0 0.0 21.6012 -6.58811 -5.98772 4.28432 -0.199988 -0.62677 -21.0587 9.53462 3.16712 14.2145 -0.0 -0.0 -0.0 0.0 -0.0 -10.7213 -23.1148 13.6892 -19.1606 -0.304682 -2.91089 28.2817 31.6602 4.68846 5.4726 -0.0 -0.0 0.0 0.0 0.0 
3054.45 703.229 -1450.28 -2.78741 71.4605 1.3968 -1.88991 0.697232 1.11941 -1.88943 0.624592 1.1615 -1.87574 0.324965 1.27811 -1.87764 0.522726 1.21076 -15.6313 15.2516 4.0766 -16.313 26.8708 9.28511 -0.0 0.0 -0.0 5.18105 23.1474 9.88008 -35.2595 -14.833 63.9827 0.57728 -15.959 0.0809213 -14.3101 -0.717895 1.67826 0.688473 11.6668 9.21795 -0.0 0.0 -0.0 13.8993 26.7226 -27.6766 11.661 30.5755 -54.7061 1.98653 44.535 -0.813488 55.9025 1.42301 6.71734 3.63865 -5.93747 -27.4029 0.0 0.0 0.0 21.2584 -7.37594 -5.60494 3.83514 -0.176823 -0.561765 -18.7128 8.54025 2.81175 14.591 -0.0 -0.0 -0.0 0.0 -0.0 -10.016 -21.4411 15.1243 -18.3363 -0.311729 -2.7846 26.4467 32.9157 4.51903 5.25491 -0.0 -0.0 0.0 0.0 0.0 
3033.44 704.297 -1444.56 -3.44768 71.5093 1.76544 -1.80074 0.773352 1.04659 -1.8004 0.705192 1.09367 -1.78603 0.421529 1.23113 -1.78763 0.610661 1.14913 -15.3929 15.4108 4.4942 -16.0439 26.904 9.66455 -0.0 0.0 -0.0 5.24762 23.6196 9.9533 -35.2826 -15.1099 63.5684 0.583225 -16.1148 0.0825637 -14.6613 -0.740704 1.717 0.762886 11.6079 9.67498 -0.0 0.0 -0.0 13.8533 26.6801 -27.5746 10.1457 29.5283 -54.1445 2.00063 44.7375 -0.823392 56.0196 1.43265 6.72885 3.59497 -6.2074 -27.1743 0.0 0.0 0.0 20.8798 -7.63458 -4.63611 3.30499 -0.150141 -0.484818 -17.5268 7.48499 2.63252 14.9117 -0.0 -0.0 -0.0 0.0 -0.0 -9.48787 -20.1501 16.375 -18.6783 -0.309026 -2.83701 25.6703 32.6917 4.39574 5.75175 -0.0 -0.0 0.0 0.0 0.0 
3016.06 706.559 -1439.9 -3.90733 71.1072 2.42643 -1.76633 0.660274 1.02659 -1.76594 0.593615 1.06652 -1.75404 0.320383 1.17779 -1.75563 0.502361 1.11242 -14.8427 15.616 4.61413 -15.4563 27.1506 9.70442 -0.0 0.0 -0.0 5.60096 23.4424 10.4587 -34.1963 -15.2678 62.151 0.627752 -17.2742 0.0953553 -14.8924 -0.755836 1.74241 0.682869 11.153 8.98719 -0.0 0.0 -0.0 13.6008 26.4615 -27.014 8.7885 29.2454 -54.3742 2.01762 44.9797 -0.83538 56.1119 1.44026 6.7379 3.40926 -6.73871 -25.9925 0.0 0.0 0.0 21.2018 -8.43453 -4.28413 -0.753518 0.0302927 0.111668 -9.46789 9.36802 1.41058 17.404 -0.0 -0.0 -0.0 0.0 -0.0 -9.18776 -19.2549 17.1105 -18.3075 -0.311942 -2.78019 24.3388 30.9165 4.10327 6.28615 -0.0 -0.0 0.0 0.0 0.0 
2983.15 709.424 -1436.47 -4.33237 70.9378 2.95044 -1.74757 0.531049 1.01527 -1.74712 0.465372 1.047 -1.73783 0.200863 1.12801 -1.73941 0.37648 1.08214 -12.6262 16.3595 3.99732 -13.1257 28.6142 8.79295 -0.0 0.0 -0.0 5.30225 22.6141 10.075 -33.2357 -15.6487 62.7411 0.583658 -16.1262 0.0826839 -15.0988 -0.769445 1.76506 0.820948 11.7996 10.1211 -0.0 0.0 -0.0 13.742 26.6047 -27.3249 7.15846 28.3989 -55.008 1.919 43.5452 -0.766542 56.6199 1.48241 6.78751 3.60276 -6.22378 -27.238 0.0 0.0 0.0 20.4974 -7.9667 -3.6131 -3.93605 0.141929 0.587272 -2.97515 8.73398 0.438279 17.9959 -0.0 -0.0 -0.0 0.0 -0.0 -9.4224 -18.4896 17.8558 -18.6459 -0.309295 -2.83205 25.3197 31.5738 4.27896 6.47746 -0.0 -0.0 0.0 0.0 0.0 
